<svg xmlns="http://www.w3.org/2000/svg" width="35.5" height="35.5" viewBox="0 0 35.5 35.5">
  <path id="Icon_awesome-linkedin" data-name="Icon awesome-linkedin" d="M32.964,2.25H2.528A2.547,2.547,0,0,0,0,4.809V35.191A2.547,2.547,0,0,0,2.528,37.75H32.964A2.553,2.553,0,0,0,35.5,35.191V4.809A2.553,2.553,0,0,0,32.964,2.25ZM10.729,32.679H5.468V15.737h5.27V32.679ZM8.1,13.423a3.051,3.051,0,1,1,3.051-3.051A3.052,3.052,0,0,1,8.1,13.423ZM30.452,32.679H25.191V24.438c0-1.965-.04-4.493-2.734-4.493-2.742,0-3.162,2.14-3.162,4.35v8.384H14.034V15.737h5.048v2.314h.071a5.542,5.542,0,0,1,4.984-2.734c5.325,0,6.316,3.51,6.316,8.075Z" transform="translate(0 -2.25)" fill="#ff2986"/>
</svg>
