<?xml version="1.0" encoding="UTF-8"?><svg id="a" xmlns="http://www.w3.org/2000/svg" xmlns:xlink="http://www.w3.org/1999/xlink" viewBox="0 0 333.56 325.23"><defs><style>.d{fill:url(#b);}</style><linearGradient id="b" x1="0" y1="205.38" x2="333.56" y2="205.38" gradientTransform="translate(0 367.99) scale(1 -1)" gradientUnits="userSpaceOnUse"><stop offset="0" stop-color="#7e469c"/><stop offset=".25" stop-color="#ba6eba"/><stop offset=".71" stop-color="#f5469c"/><stop offset="1" stop-color="#7e469c"/></linearGradient></defs><path id="c" class="d" d="M111.59,261.88c0,1.35-1.55,2.42-3.5,2.42-2.22,.2-3.76-.92-3.76-2.42,0-1.35,1.55-2.42,3.5-2.42,2.02-.2,3.76,.87,3.76,2.42Zm-20.87-3.02c-.47,1.35,.92,2.89,2.89,3.3,1.53,.75,3.37,.15,4.17-1.35,.4-1.35-.92-2.89-2.89-3.5-1.58-.57-3.34,.09-4.17,1.55h0Zm29.72-1.15c-1.95,.47-3.3,1.75-3.1,3.3,.2,1.35,1.95,2.22,3.97,1.75,2.02-.47,3.3-1.75,3.1-3.1s-2.06-2.15-4.01-1.95h.04ZM164.64,.04C75.62-1.85,1.93,68.79,.04,157.81c-.04,2.1-.05,4.21-.01,6.31-.59,72.56,45.32,137.35,113.97,160.84,8.61,1.55,11.63-3.76,11.63-8.13s-.2-27.17-.2-41.28c0,0-47.06,10.08-56.96-20.04,0,0-7.67-19.57-18.7-24.61,0,0-15.4-10.55,1.07-10.35,10.87,1.46,20.44,7.87,25.95,17.35,9.27,17.3,30.81,23.82,48.11,14.55,.3-.16,.61-.33,.91-.5,.87-8.57,4.67-16.57,10.76-22.66-37.56-4.17-75.52-9.62-75.52-74.3-.75-14.89,5.07-29.37,15.91-39.61-5.1-14.91-4.47-31.18,1.75-45.65,14.05-4.37,46.4,18.16,46.4,18.16,27.64-7.62,56.82-7.62,84.46,0,0,0,32.28-22.6,46.38-18.16,6.23,14.47,6.85,30.75,1.75,45.65,11.23,10.08,17.55,24.52,17.35,39.61,0,64.89-39.61,70.07-77.19,74.3,8.18,8.23,12.36,19.63,11.43,31.2,0,22.66-.2,50.7-.2,56.22,0,4.37,3.1,9.68,11.63,8.13,68.45-23.47,114-88.35,112.82-160.7C333.54,70.87,257.89,.06,164.63,.06v-.02ZM65.39,231.96c-.92,.67-.67,2.22,.47,3.5,1.07,1.07,2.62,1.55,3.5,.67,.92-.67,.67-2.22-.47-3.5-1.07-1.07-2.62-1.54-3.5-.67Zm-7.26-5.45c-.47,.92,.2,1.95,1.55,2.62,.87,.68,2.12,.53,2.8-.34,.03-.04,.06-.08,.09-.13,.47-.92-.2-1.95-1.55-2.62-1.35-.4-2.42-.2-2.89,.48h0Zm21.79,23.93c-1.07,.92-.67,2.89,.92,4.17,1.55,1.55,3.5,1.75,4.37,.67,.92-.92,.47-2.89-.92-4.17-1.48-1.58-3.5-1.75-4.37-.67Zm-7.67-9.89c-1.07,.67-1.07,2.42,0,3.97s2.89,2.22,3.76,1.55c1.09-1.18,1.09-2.99,0-4.17-.94-1.53-2.7-2.22-3.76-1.35h0Z"/></svg>