<svg xmlns="http://www.w3.org/2000/svg" width="36.41" height="35.5" viewBox="0 0 36.41 35.5">
  <path id="Icon_awesome-github" data-name="Icon awesome-github" d="M12.178,29.147c0,.147-.169.264-.382.264-.242.022-.411-.1-.411-.264,0-.147.169-.264.382-.264C11.987,28.861,12.178,28.978,12.178,29.147ZM9.9,28.817c-.051.147.1.316.316.36a.344.344,0,0,0,.455-.147c.044-.147-.1-.316-.316-.382A.377.377,0,0,0,9.9,28.817Zm3.245-.125c-.213.051-.36.191-.338.36.022.147.213.242.433.191s.36-.191.338-.338S13.353,28.67,13.14,28.692ZM17.97.562A17.6,17.6,0,0,0,0,18.474,18.4,18.4,0,0,0,12.442,36.033c.94.169,1.27-.411,1.27-.888,0-.455-.022-2.966-.022-4.507,0,0-5.138,1.1-6.218-2.188,0,0-.837-2.136-2.041-2.687,0,0-1.681-1.152.117-1.13a3.875,3.875,0,0,1,2.833,1.894,3.88,3.88,0,0,0,5.351,1.534,4.08,4.08,0,0,1,1.175-2.474c-4.1-.455-8.244-1.05-8.244-8.111A5.563,5.563,0,0,1,8.4,13.152a6.936,6.936,0,0,1,.191-4.984c1.534-.477,5.065,1.982,5.065,1.982a17.342,17.342,0,0,1,9.22,0S26.4,7.683,27.939,8.167a6.932,6.932,0,0,1,.191,4.984,5.706,5.706,0,0,1,1.894,4.324c0,7.084-4.324,7.649-8.427,8.111a4.341,4.341,0,0,1,1.248,3.406c0,2.474-.022,5.535-.022,6.137,0,.477.338,1.057,1.27.888A18.234,18.234,0,0,0,36.41,18.474C36.41,8.292,28.151.562,17.97.562ZM7.135,25.88c-.1.073-.073.242.051.382.117.117.286.169.382.073.1-.073.073-.242-.051-.382C7.4,25.836,7.231,25.785,7.135,25.88Zm-.793-.595c-.051.1.022.213.169.286a.218.218,0,0,0,.316-.051c.051-.1-.022-.213-.169-.286C6.511,25.19,6.394,25.212,6.342,25.286ZM8.721,27.9c-.117.1-.073.316.1.455.169.169.382.191.477.073.1-.1.051-.316-.1-.455C9.036,27.8,8.816,27.782,8.721,27.9ZM7.884,26.82c-.117.073-.117.264,0,.433s.316.242.411.169a.335.335,0,0,0,0-.455C8.192,26.8,8,26.725,7.884,26.82Z" transform="translate(0 -0.563)" fill="#fff"/>
</svg>
