<svg xmlns="http://www.w3.org/2000/svg" xmlns:xlink="http://www.w3.org/1999/xlink" viewBox="0 0 153.6 182.75"><defs><style>.cls-1{fill:url(#linear-gradient);}.cls-2{fill:url(#linear-gradient-2);}.cls-3{fill:url(#linear-gradient-3);}</style><linearGradient id="linear-gradient" x1="45.57" y1="204.35" x2="103.35" y2="104.28" gradientTransform="matrix(1, 0.08, -0.09, 1.16, 12.65, -29.19)" gradientUnits="userSpaceOnUse"><stop offset="0" stop-color="#c7c7fc"/><stop offset="0.25" stop-color="#ba6eba"/><stop offset="0.71" stop-color="#f5469c"/><stop offset="1" stop-color="#7e469c"/></linearGradient><linearGradient id="linear-gradient-2" x1="57.04" y1="114.38" x2="163.34" y2="114.38" gradientTransform="matrix(1.04, -0.1, 0.1, 1, -17.69, 10.22)" xlink:href="#linear-gradient"/><linearGradient id="linear-gradient-3" x1="57.23" y1="63.02" x2="201.39" y2="63.02" gradientTransform="matrix(1.01, -0.08, 0.08, 1, -4.37, 9.8)" xlink:href="#linear-gradient"/></defs><g id="Layer_10" data-name="Layer 10"><path class="cls-1" d="M58.31,112.5a32.47,32.47,0,0,0-1.4,3.61,28.27,28.27,0,0,0-.89,3.65L48.25,219c33.72,2.13,42.31-24.36,42.31-24.36L98.3,93.79a54.51,54.51,0,0,0-8.56.11c-3.45.32-13.36,1.33-21.84,7.35C67.9,101.25,61.42,105.85,58.31,112.5Z" transform="translate(-48.25 -36.37)"/><path class="cls-2" d="M54.5,139.22l81.61-7.79S161.6,127.49,161,88.05c-39.87,2.76-69,5.23-74.08,6a62.86,62.86,0,0,0-7.94,1.84A38.4,38.4,0,0,0,73.46,98a34.65,34.65,0,0,0-6.29,3.81,28.6,28.6,0,0,0-8.82,10.61A29.67,29.67,0,0,0,56,119.88c-.17,1-.1,1-.46,5.9-.11,1.59-.08,1-.63,8C54.8,135.37,54.61,137.7,54.5,139.22Z" transform="translate(-48.25 -36.37)"/><path class="cls-3" d="M60.05,88.84l107.29-8.73s33.59-4.21,34.51-43.74l-105,7.36S59.38,48,60.05,88.84Z" transform="translate(-48.25 -36.37)"/></g></svg>