<?xml version="1.0" encoding="UTF-8"?><svg id="a" xmlns="http://www.w3.org/2000/svg" xmlns:xlink="http://www.w3.org/1999/xlink" viewBox="0 0 276.69 267.21"><defs><style>.g{fill:url(#f);}.h{stroke:url(#e);}.h,.i{fill:none;stroke-miterlimit:10;stroke-width:25px;}.i{stroke:url(#c);}</style><linearGradient id="c" x1="0" y1="196.82" x2="276.69" y2="196.82" gradientTransform="translate(0 330.42) scale(1 -1)" gradientUnits="userSpaceOnUse"><stop offset="0" stop-color="#7e469c"/><stop offset=".25" stop-color="#ba6eba"/><stop offset=".71" stop-color="#f5469c"/><stop offset="1" stop-color="#7e469c"/></linearGradient><linearGradient id="e" x1="63" y1="200.83" x2="150.97" y2="200.83" gradientTransform="translate(0 330.42) scale(1 -1)" gradientUnits="userSpaceOnUse"><stop offset="0" stop-color="#7e469c"/><stop offset=".25" stop-color="#ba6eba"/><stop offset=".71" stop-color="#f5469c"/><stop offset="1" stop-color="#7e469c"/></linearGradient><linearGradient id="f" x1="161.41" y1="184.3" x2="227.13" y2="184.3" gradientTransform="translate(0 330.42) scale(1 -1)" gradientUnits="userSpaceOnUse"><stop offset="0" stop-color="#7e469c"/><stop offset=".25" stop-color="#ba6eba"/><stop offset=".71" stop-color="#f5469c"/><stop offset="1" stop-color="#7e469c"/></linearGradient></defs><g id="b"><rect class="i" x="12.5" y="12.5" width="251.69" height="242.21"/></g><g id="d"><path class="h" d="M75.5,193.71V79.53s54.69-11.54,62.84,28.33c.7,8.38-1.61,13.93-3.32,16.97-5.52,9.8-29.15,20.15-54.53,16.19-2.26-.35-4.05-.74-5-.96"/><path class="g" d="M178,102.21c13.44-7.09,27.61-3.4,33-2,4.98,1.29,8.89,3.04,11.5,4.36v20.14h-3c-15-7-31-4-31-4-6,3-2,9-2,9,6,4,12.51,6.13,12.51,6.13,9.51,3.13,18.49,9.87,18.49,9.87,15,9,8,29,8,29-1.9,3.29-8.06,12.97-20.27,17.38-5.64,2.03-10.73,2.28-14.23,2.12-5.19,.04-12.14-.53-19.89-2.99-3.7-1.18-6.93-2.59-9.68-3.99,0,0,.07-19.51,0-20.59-.06-1.08,1.06-.92,1.06-.92,8,6,29,8,29,8,11-1,11-6,11-6,1-6-12-10-12-10-13-5-18-9-18-9-1.34-.96-9.82-7.25-10.96-18.7-1.04-10.48,4.9-17.86,6.46-19.8,3.73-4.64,7.91-6.9,10-8h.01Z"/></g></svg>