<?xml version="1.0" encoding="UTF-8"?><svg id="a" xmlns="http://www.w3.org/2000/svg" xmlns:xlink="http://www.w3.org/1999/xlink" viewBox="0 0 344.76 344.35"><defs><style>.f{stroke:url(#e);stroke-width:20px;}.f,.g{fill:none;stroke-miterlimit:10;}.g{stroke:url(#c);stroke-width:30px;}</style><linearGradient id="c" x1="172.38" y1="51.58" x2="172.38" y2="395.92" gradientTransform="translate(0 395.92) scale(1 -1)" gradientUnits="userSpaceOnUse"><stop offset="0" stop-color="#7e469c"/><stop offset=".25" stop-color="#ba6eba"/><stop offset=".71" stop-color="#f5469c"/><stop offset="1" stop-color="#7e469c"/></linearGradient><linearGradient id="e" x1="75" y1="223.36" x2="266.6" y2="223.36" gradientTransform="translate(0 395.92) scale(1 -1)" gradientUnits="userSpaceOnUse"><stop offset="0" stop-color="#7e469c"/><stop offset=".25" stop-color="#ba6eba"/><stop offset=".71" stop-color="#f5469c"/><stop offset="1" stop-color="#7e469c"/></linearGradient></defs><g id="b"><polygon class="g" points="139.75 326.96 111.92 318.32 111.92 277.57 95.61 266.5 55.3 278.98 38.03 254.99 60.1 220.44 54.34 202.21 15 189.73 15 159.12 52.43 146.55 59.14 126.4 34.19 93.77 52.43 68.82 92.73 81.3 107.05 68.82 107.12 28.52 135.91 17.96 159.9 50.59 180.06 50.59 204.74 17.96 232.84 26.6 233.8 67.86 250.11 78.42 289.45 65.94 307.69 89.93 284.66 123.52 290.41 141.75 329.76 154.23 329.76 184.43 293.29 198.37 286.57 216.6 309.61 248.27 293.29 274.18 252.99 264.58 238.59 274.18 237.63 316.4 208.84 326 184.85 293.37 164.7 295.29 139.75 326.96"/></g><g id="d"><path class="f" d="M144,221.96s-59,11-59-42c0,0-1-33,35-40,0,0,3-33,33-35,0,0,28,0,38,19,0,0,35-7,41,28,0,0,32,9,23,41,0,0-10,26-37,19,0,0-12,31-38,28,0,0-25,0-36-18Z"/></g></svg>