<?xml version="1.0" encoding="UTF-8"?><svg id="a" xmlns="http://www.w3.org/2000/svg" xmlns:xlink="http://www.w3.org/1999/xlink" viewBox="0 0 333.5 333.5"><defs><style>.e{fill:url(#c);}.f{fill:none;stroke:url(#d);stroke-miterlimit:10;stroke-width:25px;}</style><linearGradient id="c" x1="46.79" y1="68.69" x2="298.3" y2="68.69" gradientTransform="translate(0 230) scale(1 -1)" gradientUnits="userSpaceOnUse"><stop offset="0" stop-color="#7e469c"/><stop offset=".25" stop-color="#ba6eba"/><stop offset=".71" stop-color="#f5469c"/><stop offset="1" stop-color="#7e469c"/></linearGradient><linearGradient id="d" x1="166.75" y1="-103.5" x2="166.75" y2="230" gradientTransform="translate(0 230) scale(1 -1)" gradientUnits="userSpaceOnUse"><stop offset="0" stop-color="#7e469c"/><stop offset=".25" stop-color="#ba6eba"/><stop offset=".71" stop-color="#f5469c"/><stop offset="1" stop-color="#7e469c"/></linearGradient></defs><g id="b"><path class="e" d="M263.32,175.42c-8.77,.05-16.4,2.16-22.78,5.28-2.34-4.64-4.69-8.77-5.1-11.81-.46-3.54-1.01-5.7-.46-9.92,.55-4.23,3.03-10.24,2.99-10.7s-.55-2.62-5.6-2.66-9.42,.96-9.92,2.3-1.47,4.36-2.11,7.49c-.87,4.59-10.11,20.99-15.39,29.58-1.7-3.35-3.17-6.29-3.49-8.64-.46-3.54-1.01-5.7-.46-9.92,.55-4.23,3.03-10.24,2.99-10.7s-.55-2.62-5.6-2.66c-5.05-.05-9.42,.96-9.92,2.3s-1.06,4.46-2.11,7.49c-1.06,3.03-13.32,30.41-16.54,37.48-1.65,3.63-3.08,6.52-4.09,8.5h0s-.05,.14-.18,.37c-.87,1.7-1.38,2.62-1.38,2.62v.05c-.69,1.24-1.42,2.39-1.79,2.39-.28,0-.78-3.31,.09-7.81,1.84-9.51,6.2-24.3,6.16-24.8,0-.28,.83-2.85-2.85-4.18-3.58-1.33-4.87,.87-5.19,.87s-.55,.78-.55,.78c0,0,4-16.63-7.63-16.63-7.26,0-17.27,7.95-22.23,15.11-3.12,1.7-9.78,5.33-16.9,9.23-2.71,1.52-5.51,3.03-8.13,4.46-.18-.18-.37-.41-.55-.6-14.06-15.02-40.05-25.63-38.95-45.8,.41-7.35,2.94-26.64,49.93-50.07,38.68-19.06,69.45-13.78,74.78-2.07,7.63,16.72-16.49,47.77-56.45,52.27-15.25,1.7-23.24-4.18-25.26-6.38-2.11-2.3-2.43-2.43-3.22-1.98-1.29,.69-.46,2.76,0,3.95,1.19,3.12,6.11,8.64,14.42,11.35,7.35,2.39,25.22,3.72,46.85-4.64,24.21-9.37,43.13-35.42,37.57-57.23-5.56-22.14-42.31-29.44-77.08-17.09-20.67,7.35-43.09,18.93-59.21,33.99-19.15,17.91-22.19,33.49-20.95,40.01,4.46,23.15,36.38,38.22,49.15,49.38-.64,.37-1.24,.69-1.75,.96-6.38,3.17-30.73,15.89-36.79,29.35-6.89,15.25,1.1,26.18,6.38,27.65,16.4,4.55,33.26-3.63,42.31-17.13s7.95-31.05,3.77-39.09c-.05-.09-.09-.18-.18-.28,1.65-.96,3.35-1.98,5.01-2.94,3.26-1.93,6.48-3.72,9.23-5.19-1.56,4.27-2.71,9.37-3.26,16.72-.69,8.64,2.85,19.84,7.49,24.25,2.07,1.93,4.5,1.98,6.06,1.98,5.42,0,7.85-4.5,10.56-9.83,3.31-6.52,6.29-14.1,6.29-14.1,0,0-3.72,20.49,6.38,20.49,3.67,0,7.4-4.78,9.05-7.21v.05s.09-.14,.28-.46c.37-.6,.6-.96,.6-.96v-.09c1.47-2.57,4.78-8.41,9.69-18.1,6.34-12.49,12.45-28.11,12.45-28.11,0,0,.55,3.81,2.43,10.15,1.1,3.72,3.4,7.81,5.24,11.76-1.47,2.07-2.39,3.22-2.39,3.22l.05,.05c-1.19,1.56-2.48,3.26-3.9,4.92-5.01,5.97-10.98,12.82-11.81,14.79-.96,2.34-.73,4.04,1.1,5.42,1.33,1.01,3.72,1.15,6.16,1.01,4.5-.32,7.67-1.42,9.23-2.11,2.43-.87,5.28-2.2,7.95-4.18,4.92-3.63,7.9-8.82,7.63-15.66-.14-3.77-1.38-7.53-2.89-11.07,.46-.64,.87-1.29,1.33-1.93,7.76-11.35,13.78-23.79,13.78-23.79,0,0,.55,3.81,2.43,10.15,.92,3.22,2.8,6.71,4.46,10.11-7.3,5.93-11.81,12.82-13.41,17.32-2.89,8.36-.64,12.13,3.63,13,1.93,.41,4.69-.51,6.71-1.38,2.57-.83,5.6-2.25,8.5-4.36,4.92-3.63,9.65-8.68,9.37-15.53-.14-3.12-.96-6.2-2.11-9.19,6.2-2.57,14.19-4,24.39-2.8,21.86,2.57,26.18,16.21,25.36,21.96s-5.42,8.87-6.94,9.83-2.02,1.29-1.88,1.98c.18,1.01,.92,.96,2.2,.78,1.79-.32,11.48-4.64,11.9-15.2,.69-13.5-12.17-28.25-34.91-28.11l-.04-.06Zm-168.67,56.87c-7.26,7.9-17.36,10.89-21.73,8.36-4.69-2.71-2.85-14.38,6.06-22.74,5.42-5.1,12.4-9.83,17.04-12.72,1.06-.64,2.62-1.56,4.5-2.71,.32-.18,.51-.28,.51-.28h0l1.1-.69c3.26,11.94,.14,22.46-7.49,30.78h.01Zm52.82-35.92c-2.53,6.16-7.81,21.91-11.02,21.04-2.76-.73-4.46-12.68-.55-24.48,1.98-5.93,6.16-13,8.59-15.76,3.95-4.41,8.31-5.88,9.37-4.09,1.33,2.34-4.82,19.43-6.38,23.29h-.01Zm43.59,20.85c-1.06,.55-2.07,.92-2.53,.64-.32-.18,.46-.92,.46-.92,0,0,5.47-5.88,7.63-8.54,1.24-1.56,2.71-3.4,4.27-5.47v.6c0,7.03-6.8,11.76-9.83,13.69Zm33.62-7.67c-.78-.55-.64-2.39,1.98-8.13,1.01-2.25,3.4-6.02,7.49-9.65,.46,1.47,.78,2.89,.73,4.23-.05,8.87-6.38,12.17-10.2,13.55h0Z"/><circle class="f" cx="166.75" cy="166.75" r="154.25"/></g></svg>