<?xml version="1.0" encoding="UTF-8"?><svg id="a" xmlns="http://www.w3.org/2000/svg" xmlns:xlink="http://www.w3.org/1999/xlink" viewBox="0 0 323 309"><defs><style>.j{stroke:url(#h);}.j,.k,.l{stroke-width:22px;}.j,.k,.l,.m,.n,.o{fill:none;stroke-miterlimit:10;}.k{stroke:url(#c);}.l{stroke:url(#f);}.m{stroke:url(#d);}.m,.n,.o{stroke-width:30px;}.n{stroke:url(#g);}.o{stroke:url(#i);}</style><linearGradient id="c" x1="122" y1="300" x2="202" y2="300" gradientTransform="translate(0 340) scale(1 -1)" gradientUnits="userSpaceOnUse"><stop offset="0" stop-color="#7e469c"/><stop offset=".25" stop-color="#ba6eba"/><stop offset=".71" stop-color="#f5469c"/><stop offset="1" stop-color="#7e469c"/></linearGradient><linearGradient id="d" x1="93" y1="168.21" x2="231" y2="168.21" gradientTransform="translate(0 340) scale(1 -1)" gradientUnits="userSpaceOnUse"><stop offset="0" stop-color="#7e469c"/><stop offset=".25" stop-color="#ba6eba"/><stop offset=".71" stop-color="#f5469c"/><stop offset="1" stop-color="#7e469c"/></linearGradient><linearGradient id="f" x1="29" y1="255" x2="109" y2="255" gradientTransform="translate(0 340) scale(1 -1)" gradientUnits="userSpaceOnUse"><stop offset="0" stop-color="#7e469c"/><stop offset=".25" stop-color="#ba6eba"/><stop offset=".71" stop-color="#f5469c"/><stop offset="1" stop-color="#7e469c"/></linearGradient><linearGradient id="g" x1="0" y1="122.21" x2="138" y2="122.21" gradientTransform="translate(0 340) scale(1 -1)" gradientUnits="userSpaceOnUse"><stop offset="0" stop-color="#7e469c"/><stop offset=".25" stop-color="#ba6eba"/><stop offset=".71" stop-color="#f5469c"/><stop offset="1" stop-color="#7e469c"/></linearGradient><linearGradient id="h" x1="214" y1="255" x2="294" y2="255" gradientTransform="translate(0 340) scale(1 -1)" gradientUnits="userSpaceOnUse"><stop offset="0" stop-color="#7e469c"/><stop offset=".25" stop-color="#ba6eba"/><stop offset=".71" stop-color="#f5469c"/><stop offset="1" stop-color="#7e469c"/></linearGradient><linearGradient id="i" x1="185" y1="122.21" x2="323" y2="122.21" gradientTransform="translate(0 340) scale(1 -1)" gradientUnits="userSpaceOnUse"><stop offset="0" stop-color="#7e469c"/><stop offset=".25" stop-color="#ba6eba"/><stop offset=".71" stop-color="#f5469c"/><stop offset="1" stop-color="#7e469c"/></linearGradient></defs><g id="b"><circle class="k" cx="162" cy="40" r="29"/><path class="m" d="M108,262v-104c1.08-37.49,23.91-61.04,51-62.36,28.86-1.41,57,22.7,57,62.36v105"/></g><g id="e"><circle class="l" cx="69" cy="85" r="29"/><path class="n" d="M15,308v-104c1.08-37.49,23.91-61.04,51-62.36,28.86-1.41,57,22.7,57,62.36v105"/><circle class="j" cx="254" cy="85" r="29"/><path class="o" d="M200,308v-104c1.08-37.49,23.91-61.04,51-62.36,28.86-1.41,57,22.7,57,62.36v105"/></g></svg>