<?xml version="1.0" encoding="UTF-8"?><svg id="a" xmlns="http://www.w3.org/2000/svg" xmlns:xlink="http://www.w3.org/1999/xlink" viewBox="0 0 347.01 377"><defs><style>.d{stroke:url(#b);stroke-width:30px;}.d,.e{fill:none;stroke-miterlimit:10;}.e{stroke:url(#c);stroke-width:20px;}</style><linearGradient id="b" x1="0" y1="214.03" x2="347.01" y2="214.03" gradientTransform="translate(0 426) scale(1 -1)" gradientUnits="userSpaceOnUse"><stop offset="0" stop-color="#7e469c"/><stop offset=".25" stop-color="#ba6eba"/><stop offset=".71" stop-color="#f5469c"/><stop offset="1" stop-color="#7e469c"/></linearGradient><linearGradient id="c" x1="114.78" y1="284.48" x2="278.55" y2="284.48" gradientTransform="translate(0 426) scale(1 -1)" gradientUnits="userSpaceOnUse"><stop offset="0" stop-color="#7e469c"/><stop offset=".25" stop-color="#ba6eba"/><stop offset=".71" stop-color="#f5469c"/><stop offset="1" stop-color="#7e469c"/></linearGradient></defs><path class="d" d="M129.58,82.35S38.56,63.07,25.41,62c-13.15-1.07-10.11,12.85-10.11,12.85,0,0,140.58,262.39,150.35,279.53s17.54,0,17.54,0L330.85,74.85s5.96-12.97-9.16-12.91c-15.11,.06-85.91,17.19-85.91,17.19"/><path class="e" d="M171,265s-1,15,8,4,89-177,89-177c0,0,3-7-5-7s-29,6-29,6c0,0-7.07,2-6.03-6s20.03-69,20.03-69c0,0,3-6-7-6s-106,21-106,21c0,0-3,2-4,6s-6,110-6,110c0,0-2,7,6,6l28-7s8-1,5,6l-8,42s-2,5,5,6l18-6s8-1,5,6l-13,65Z"/></svg>