<?xml version="1.0" encoding="UTF-8"?><svg id="a" xmlns="http://www.w3.org/2000/svg" xmlns:xlink="http://www.w3.org/1999/xlink" viewBox="0 0 342.78 342.78"><defs><style>.c{fill:url(#b);}</style><linearGradient id="b" x1="0" y1="212.61" x2="342.78" y2="212.61" gradientTransform="translate(0 384) scale(1 -1)" gradientUnits="userSpaceOnUse"><stop offset="0" stop-color="#7e469c"/><stop offset=".25" stop-color="#ba6eba"/><stop offset=".71" stop-color="#f5469c"/><stop offset="1" stop-color="#7e469c"/></linearGradient></defs><path class="c" d="M171.39,0C76.94,0,0,76.86,0,171.39s76.94,171.39,171.39,171.39,171.39-76.94,171.39-171.39S265.84,0,171.39,0h0ZM17.29,171.39c0-22.32,4.8-43.57,13.33-62.69l73.51,201.4c-51.42-25.06-86.84-77.77-86.84-138.71Zm154.1,154.1c-15.16,0-29.71-2.21-43.57-6.32l46.24-134.37,47.3,129.8c.38,.76,.69,1.45,1.14,2.13-15.92,5.64-33.14,8.76-51.11,8.76h0Zm21.25-226.31c9.29-.46,17.6-1.45,17.6-1.45,8.3-.99,7.31-13.18-.99-12.72,0,0-24.98,1.9-41.06,1.9-15.16,0-40.6-1.9-40.6-1.9-8.3-.46-9.29,12.26-.99,12.72,0,0,7.85,.99,16.15,1.45l23.99,65.81-33.74,101.08L76.86,99.17c9.29-.46,17.6-1.45,17.6-1.45,8.3-.99,7.31-13.18-.99-12.72,0,0-24.98,1.9-41.06,1.9-2.89,0-6.32-.08-9.98-.23C70,44.85,117.31,17.2,171.16,17.2c40.07,0,76.63,15.31,104.05,40.45-.69-.08-1.29-.15-1.98-.15-15.16,0-25.82,13.18-25.82,27.35,0,12.72,7.31,23.46,15.16,36.11,5.87,10.21,12.72,23.46,12.72,42.5,0,13.18-5.03,28.49-11.73,49.82l-15.31,51.34-55.61-165.45h0Zm56.22,205.37l47.08-136.05c8.76-22.01,11.73-39.53,11.73-55.23,0-5.64-.38-10.89-1.07-15.84,12.04,22.01,18.89,47.15,18.89,73.96,0,56.9-30.77,106.49-76.63,133.15h0Z"/></svg>