<?xml version="1.0" encoding="UTF-8"?><svg id="a" xmlns="http://www.w3.org/2000/svg" xmlns:xlink="http://www.w3.org/1999/xlink" viewBox="0 0 276.69 267.21"><defs><style>.g{fill:url(#e);}.h{stroke:url(#f);stroke-width:20px;}.h,.i{fill:none;stroke-miterlimit:10;}.i{stroke:url(#c);stroke-width:25px;}</style><linearGradient id="c" x1="0" y1="196.82" x2="276.69" y2="196.82" gradientTransform="translate(0 330.42) scale(1 -1)" gradientUnits="userSpaceOnUse"><stop offset="0" stop-color="#7e469c"/><stop offset=".25" stop-color="#ba6eba"/><stop offset=".71" stop-color="#f5469c"/><stop offset="1" stop-color="#7e469c"/></linearGradient><linearGradient id="e" x1="47.61" y1="193.85" x2="148.28" y2="193.85" gradientTransform="translate(0 330.42) scale(1 -1)" gradientUnits="userSpaceOnUse"><stop offset="0" stop-color="#7e469c"/><stop offset=".25" stop-color="#ba6eba"/><stop offset=".71" stop-color="#f5469c"/><stop offset="1" stop-color="#7e469c"/></linearGradient><linearGradient id="f" x1="150.95" y1="196.76" x2="228" y2="196.76" gradientTransform="translate(0 330.42) scale(1 -1)" gradientUnits="userSpaceOnUse"><stop offset="0" stop-color="#7e469c"/><stop offset=".25" stop-color="#ba6eba"/><stop offset=".71" stop-color="#f5469c"/><stop offset="1" stop-color="#7e469c"/></linearGradient></defs><g id="b"><rect class="i" x="12.5" y="12.5" width="251.69" height="242.21"/></g><g id="d"><path class="g" d="M48.5,190.71s-2,2.26,0,2.13,24.81,0,24.81,0c0,0,.69,.36,1.69-1.64s22-41,22-41l21,41s1.3,1.33,2.65,1.66,26.35,.34,26.35,.34c0,0,2,0,1-2s-34-56-34-56l32-54s0-1-1-1h-23s-1-1-2,1-21,41-21,41l-21-38-1-2s-1-2-3-2-24.1-.25-24.1-.25c0,0-1.9,.25-1.9,2.25s33,54,33,54l-32.5,54.5h0Z"/><path class="h" d="M218,72.21v111.71s-59,11.29-57-35.71,56.5-30.5,56.5-30.5"/></g></svg>